<?xml version="1.0" encoding="utf-8"?>
<!-- Generator: Adobe Illustrator 16.0.0, SVG Export Plug-In . SVG Version: 6.00 Build 0)  -->
<!DOCTYPE svg PUBLIC "-//W3C//DTD SVG 1.1//EN" "http://www.w3.org/Graphics/SVG/1.1/DTD/svg11.dtd" [
	<!ENTITY st0 "fill:#FFFFFF;">
	<!ENTITY st1 "fill:#303030;">
]>
<svg version="1.1" id="Ebene_1" xmlns="http://www.w3.org/2000/svg" xmlns:xlink="http://www.w3.org/1999/xlink" x="0px" y="0px"
	 width="130px" height="130px" viewBox="129 129 130 130" style="enable-background:new 129 129 130 130;" xml:space="preserve">
<path style="&st1;" d="M259,194c0,33.874-29.116,65-65,65c-35.884,0-65-29.116-65-65c0-35.884,29.116-65,65-65
	C229.884,129,259,158.116,259,194z"/>
<path style="&st0;" d="M178.521,190.75c-2.479-0.201-4.892-0.268-8.41,0c-3.552,0.234-5.93,1.91-6.667,4.121
	c-0.704,2.212-0.235,9.75,3.083,12.632c3.317,2.881,11.458,2.948,15.915,1.206c4.489-1.709,7.002-8.176,7.002-12.297
	S181.603,190.984,178.521,190.75z"/>
<path style="&st0;" d="M229.281,189.711c-1.006-0.402-4.758-0.905-9.449-1.307c0.067-0.134,0.101-0.268,0.168-0.402
	c0.101-0.234,0.201-0.469,0.302-0.737c0.2-0.503,0.368-0.972,0.536-1.475c0.167-0.502,0.335-1.005,0.502-1.507
	c0.168-0.503,0.302-1.005,0.436-1.508c0.135-0.502,0.269-1.005,0.402-1.542c0.134-0.502,0.234-1.039,0.335-1.541
	c0.101-0.503,0.201-1.039,0.302-1.541c0.033-0.269,0.067-0.536,0.134-0.771l0.134-0.771l0,0l0.168-1.24
	c0.033-0.402,0.101-0.837,0.134-1.24c0.101-0.837,0.168-1.642,0.201-2.479c0.033-0.402,0.033-0.837,0.033-1.273s0-0.838-0.033-1.273
	c-0.033-0.436-0.067-0.838-0.134-1.273l-0.101-0.637l-0.134-0.637c-0.101-0.402-0.201-0.837-0.335-1.24
	c-0.067-0.201-0.135-0.402-0.201-0.603c-0.067-0.201-0.168-0.402-0.269-0.603c-0.167-0.402-0.368-0.771-0.603-1.139
	c-0.235-0.402-0.503-0.737-0.805-1.072c-0.301-0.335-0.637-0.637-1.005-0.905s-0.771-0.503-1.206-0.637
	c-0.436-0.167-0.905-0.234-1.374-0.201c-0.368,0.034-0.703,0.101-1.038,0.235c-0.135-1.81-0.771-3.585-1.81-5.06
	c-1.105-1.575-2.547-2.848-4.154-3.853c-0.805-0.502-1.643-0.972-2.479-1.374c-0.871-0.402-1.743-0.771-2.614-1.072
	c-1.775-0.637-3.618-1.072-5.461-1.441c-1.843-0.335-3.719-0.569-5.595-0.704c-1.876-0.134-3.753-0.268-5.629-0.301
	c-1.876-0.034-3.786,0.067-5.663,0.436c-1.876,0.335-3.719,0.905-5.461,1.708c-1.743,0.804-3.384,1.81-4.892,2.982
	c-1.542,1.207-2.848,2.681-3.854,4.322c-1.039,1.642-1.809,3.417-2.412,5.227c-0.57,1.809-0.972,3.719-1.173,5.595
	c-0.101,0.938-0.167,1.91-0.167,2.848c0,0.469,0,0.938,0,1.44l0.033,0.704l0.067,0.737c0.201,1.91,0.67,3.752,1.139,5.562
	c0.502,1.977,0.704,2.613,1.273,4.422c0.402,1.273,0.804,2.178,1.173,3.049c0.301,0.704,0.837,1.81,1.34,2.58l0,0
	c-3.686,0.201-6.634,0.67-8.042,0.905c-0.335,0.067-0.603,0.101-0.771,0.134c-2.446,0.335-3.887,0.771-3.954,1.977
	c-0.034,0.704,0.268,2.981,0.335,3.384c0.067,0.435,0.234,1.574,1.474,1.675c0.101,0,0.101,0,0.167,0.134
	c0.168,0.335,0.67,2.111,1.408,5.261c0.502,2.145,1.273,5.428,3.853,7.438c1.139,0.872,3.083,1.81,5.528,2.413
	c0,0.502,0,0.904,0,1.272c0,4.893,0.569,9.181,1.44,12.464c0.436,1.844,1.206,4.256,2.613,6.902c0.804,1.441,1.81,2.949,3.083,4.356
	c1.273,1.406,2.848,2.714,4.658,3.752c1.809,1.039,3.819,1.843,5.93,2.312c2.111,0.503,4.322,0.671,6.533,0.637
	c2.178,0,4.389-0.268,6.5-0.804c2.11-0.536,4.088-1.407,5.863-2.513s3.283-2.479,4.523-3.921c1.239-1.44,2.211-2.981,2.981-4.456
	c1.541-2.948,2.245-5.629,2.681-7.538c0.066-0.269,0.101-0.503,0.134-0.704c0.637-3.082,1.072-6.802,1.072-10.855
	c0-0.234,0-0.503,0-0.804c0.436-0.101,0.838-0.201,1.24-0.336c5.326-1.642,6.499-5.293,7.203-7.471
	c0.737-2.312,1.541-5.193,1.809-6.668c0.168-0.904,0.436-0.938,0.536-0.938c0.737-0.101,1.106-0.469,1.24-1.173
	c0-0.033,0-0.1,0.033-0.134c0.134-0.569,0.269-2.613,0.302-3.149c0-0.067,0-0.134,0.033-0.234
	C230.689,190.482,230.153,190.046,229.281,189.711z M169.709,177.516c0.033,1.876,0.134,3.719,0.201,5.595
	c0.034,0.871,0.034,1.742,0.101,2.58c0,0.737,0,0.837,0.034,1.708c-0.335-0.737-0.402-0.771-0.704-1.541
	c-0.335-0.871-0.804-1.977-1.072-2.881c-0.57-1.776-0.938-3.183-1.34-4.993c-0.402-1.809-0.67-3.652-0.771-5.495l-0.034-0.67v-0.703
	c0-0.436,0.034-0.905,0.067-1.374c0.033-0.905,0.134-1.843,0.234-2.748c0.234-1.809,0.603-3.618,1.139-5.361
	c0.536-1.742,1.273-3.417,2.245-4.958c0.704-1.139,1.575-2.211,2.546-3.149c0.034,0,0.034-0.034,0.067-0.034
	c0.369-0.268,0.771-0.536,1.207-0.837c0.436-0.268,0.904-0.57,1.407-0.804c0.268-0.134,0.502-0.268,0.771-0.369
	s0.536-0.234,0.804-0.335s0.569-0.201,0.837-0.302c0.134-0.033,0.268-0.101,0.436-0.134l0.436-0.101
	c0.569-0.167,1.172-0.235,1.742-0.302c0.302-0.033,0.57-0.033,0.872-0.067c0.301,0,0.569,0,0.871,0c0.268,0,0.569,0.034,0.837,0.034
	c0.268,0.033,0.536,0.033,0.804,0.067c0.502,0.067,1.005,0.101,1.474,0.201c0.469,0.067,0.871,0.134,1.24,0.234
	c0.369,0.067,0.704,0.134,0.938,0.201c0.536,0.101,0.838,0.167,0.838,0.167s-0.268-0.134-0.771-0.335
	c-0.235-0.101-0.57-0.235-0.905-0.335c-0.167-0.067-0.369-0.134-0.569-0.201c-0.201-0.067-0.436-0.101-0.637-0.167
	c-0.235-0.067-0.469-0.134-0.704-0.167c-0.234-0.034-0.502-0.101-0.771-0.167c-0.268-0.067-0.536-0.067-0.804-0.134
	c-0.268-0.034-0.57-0.067-0.872-0.067c-0.301,0-0.603-0.034-0.904-0.034c-0.302,0-0.604,0.034-0.938,0.034
	c-0.301,0.033-0.636,0.067-0.938,0.101c-0.301,0.033-0.636,0.101-0.938,0.201l-0.469,0.101c-0.134,0.034-0.234,0.067-0.369,0.134
	c0.235-0.134,0.469-0.235,0.704-0.369c1.642-0.804,3.384-1.407,5.193-1.776c1.81-0.369,3.652-0.536,5.495-0.569
	c1.843-0.034,3.719,0.067,5.595,0.167c1.876,0.101,3.719,0.268,5.562,0.603s3.652,0.771,5.395,1.374
	c0.871,0.302,1.742,0.637,2.58,1.039c0.167,0.067,0.335,0.167,0.502,0.235l0,0c0.135,0.067,0.302,0.167,0.47,0.301
	c0.167,0.134,0.402,0.235,0.603,0.436c0.201,0.167,0.436,0.335,0.671,0.536c0.234,0.201,0.436,0.436,0.67,0.67
	c0.201,0.269,0.436,0.503,0.603,0.804c0.201,0.268,0.335,0.604,0.503,0.905l0.201,0.469c0.067,0.167,0.101,0.335,0.168,0.502
	c0.066,0.167,0.1,0.335,0.134,0.502c0.033,0.167,0.066,0.335,0.101,0.503c0.033,0.167,0.033,0.335,0.066,0.469
	c0.034,0.167,0.034,0.302,0.034,0.469c0.033,0.302,0,0.603,0,0.871s-0.034,0.502-0.034,0.737c0,0.234-0.033,0.402-0.066,0.569
	c-0.034,0.302-0.067,0.503-0.067,0.503s0.067-0.168,0.168-0.469c0.066-0.134,0.134-0.335,0.167-0.536
	c0.033-0.235,0.134-0.469,0.168-0.737c0.033-0.268,0.101-0.569,0.101-0.905c0-0.167,0.033-0.335,0-0.502
	c0-0.167-0.034-0.335-0.034-0.502s-0.033-0.335-0.066-0.536c-0.034-0.167-0.067-0.369-0.101-0.536
	c-0.067-0.167-0.101-0.369-0.168-0.536l-0.201-0.536c-0.167-0.335-0.335-0.67-0.569-0.972c-0.168-0.301-0.401-0.536-0.604-0.771
	c1.207,0.871,2.278,1.876,3.116,3.083c1.072,1.508,1.676,3.284,1.742,5.126v0.301l0.269-0.101c0.368-0.067,0.771-0.1,1.139-0.033
	c0.369,0.033,0.704,0.167,1.039,0.335s0.637,0.402,0.904,0.637c0.269,0.234,0.536,0.536,0.771,0.837
	c0.234,0.302,0.437,0.637,0.604,0.938c0.168,0.335,0.368,0.704,0.503,1.072c0.066,0.168,0.134,0.369,0.2,0.536
	c0.067,0.167,0.135,0.369,0.201,0.57c0.135,0.369,0.234,0.737,0.335,1.139l0.135,0.569l0.134,0.57
	c0.066,0.402,0.134,0.771,0.201,1.173c0.066,0.402,0.101,0.804,0.134,1.206c0.033,0.402,0.066,0.804,0.101,1.206
	c0.033,0.804,0.067,1.642,0.033,2.446c-0.033,0.804-0.101,1.642-0.167,2.446l-0.101,0.771c-0.033,0.269-0.067,0.503-0.101,0.771
	c-0.067,0.502-0.134,1.039-0.234,1.541c-0.101,0.503-0.168,1.039-0.302,1.542c-0.101,0.502-0.234,1.005-0.335,1.541
	c-0.134,0.502-0.269,1.005-0.402,1.508s-0.302,1.005-0.469,1.508c-0.168,0.502-0.335,0.972-0.536,1.474
	c-0.168,0.402-0.335,0.804-0.536,1.173c-0.168,0-0.335-0.034-0.536-0.034c-0.268-0.033-0.569-0.033-0.904-0.067l0.1-2.58
	l0.067-2.781l0.067-2.781c0.033-0.938,0.033-1.876,0-2.815c0-0.938-0.067-1.876-0.168-2.814c-0.101-0.938-0.201-1.876-0.402-2.814
	c-0.401-1.843-1.038-3.686-2.077-5.294c-1.038-1.642-2.513-2.949-4.154-3.954c-0.838-0.502-1.676-0.905-2.613-1.24
	c-0.201-0.067-0.469-0.167-0.704-0.201c-0.234-0.067-0.469-0.101-0.737-0.167c-0.469-0.067-0.972-0.134-1.44-0.167
	c-1.91-0.134-3.786-0.033-5.662,0.101s-3.719,0.335-5.562,0.502c-1.843,0.201-3.72,0.369-5.562,0.637s-3.686,0.536-5.528,0.905
	c-0.469,0.1-0.938,0.201-1.407,0.335l-0.67,0.201l-0.67,0.201c-0.872,0.268-1.776,0.57-2.647,0.905s-1.776,0.704-2.613,1.206
	c-0.402,0.268-0.838,0.503-1.207,0.771c-0.201,0.134-0.369,0.269-0.569,0.402c-0.201,0.134-0.369,0.268-0.57,0.436
	c-0.737,0.57-1.474,1.206-2.111,1.977c-0.637,0.771-1.105,1.642-1.407,2.613c-0.134,0.536-0.134,1.005-0.167,1.474
	s-0.034,0.938-0.067,1.407C169.709,175.639,169.709,176.577,169.709,177.516z M192.057,221.239c-0.67-0.134-1.608-0.2-2.211-0.234
	c-3.049-0.033-6.165,1.776-7.204,5.127c-1.675,5.528,0.302,10.118,4.992,10.989c1.843,0.335,4.054,0.569,6.735,0.569
	c2.546,0,4.657-0.301,6.4-0.637c6.131-1.105,5.964-6.03,4.656-10.286c-1.239-3.92-4.222-5.695-6.768-5.695
	c-0.67,0-1.508-0.033-2.212,0.101C194.905,221.508,193.464,221.541,192.057,221.239z M196.346,219.263
	c0.871-0.268,3.518-1.005,5.629-0.603c6.165,1.206,4.389,13.603,10.654,13.603c0.066,0,0.134,0,0.201-0.033
	c-0.604,1.072-1.34,2.145-2.245,3.217c-1.173,1.407-2.613,2.714-4.288,3.819c-1.676,1.072-3.586,1.943-5.63,2.479
	c-2.043,0.536-4.188,0.804-6.332,0.837c-2.145,0-4.289-0.2-6.366-0.67c-2.044-0.469-3.987-1.239-5.73-2.278
	c-1.708-1.005-3.216-2.278-4.422-3.652c-1.172-1.272-2.077-2.68-2.814-3.986c0.268,0.167,0.536,0.234,0.804,0.234
	c5.126,0,3.083-11.928,10.487-13.503c2.111-0.469,3.954,0,4.69,0.302C192.593,219.632,194.738,219.799,196.346,219.263z
	 M194.201,226.098c-4.69,0-8.477-0.536-8.477-1.474c0-0.938,3.786,0.101,8.477,0.101c4.691,0,8.477-1.978,8.477-1.039
	C202.678,224.657,198.892,226.098,194.201,226.098z M197.25,230.085c-0.838,1.307-2.379,3.016-3.149,3.016s-2.681-2.212-3.116-2.814
	c-1.105-1.541,1.776-1.81,3.116-1.81C195.441,228.477,198.121,228.711,197.25,230.085z M229.482,191.688
	c-0.033,0.637-0.2,2.58-0.268,3.015c-0.101,0.437-0.033,0.47-0.436,0.537c-0.402,0.066-1.105,0.268-1.374,1.742
	c-0.268,1.474-1.072,4.321-1.775,6.533c-0.704,2.211-1.81,5.36-6.534,6.802c-5.092,1.574-12.396,0.737-15.713-1.475
	c-3.15-2.077-3.753-3.451-4.893-5.796c-1.139-2.346-1.775-6.467-4.255-6.467s-3.183,3.25-4.289,5.796
	c-1.407,3.25-3.216,5.127-5.327,6.567s-5.596,2.211-9.147,2.211c-3.552,0-8.008-1.072-10.286-2.848
	c-0.804-0.637-1.407-1.407-1.91-2.245l0,0c-0.637-1.139-1.039-2.378-1.34-3.518c0-0.033,0-0.033,0-0.067
	c-0.033-0.167-0.067-0.301-0.134-0.469c0-0.033,0-0.067-0.033-0.101c-0.034-0.168-0.067-0.335-0.101-0.503
	c-0.034-0.134-0.067-0.268-0.101-0.401c0-0.034,0-0.067-0.034-0.101c-0.033-0.101-0.033-0.201-0.067-0.302
	c0-0.067-0.033-0.134-0.033-0.168c-0.034-0.066-0.034-0.167-0.067-0.234c-0.033-0.066-0.033-0.167-0.067-0.234
	c0-0.067-0.033-0.134-0.033-0.168c-0.034-0.1-0.034-0.167-0.067-0.268c0-0.067-0.033-0.101-0.033-0.168
	c-0.034-0.1-0.034-0.2-0.067-0.268c0-0.033-0.033-0.101-0.033-0.134c-0.034-0.101-0.034-0.201-0.067-0.302
	c0-0.033-0.034-0.067-0.034-0.134c-0.034-0.101-0.067-0.201-0.067-0.302c0-0.033,0-0.067-0.034-0.101
	c-0.033-0.101-0.067-0.201-0.067-0.302c0-0.033,0-0.033-0.034-0.066c-0.033-0.101-0.067-0.201-0.067-0.302v-0.033
	c-0.033-0.101-0.067-0.201-0.101-0.302l0,0c-0.134-0.536-0.268-0.938-0.368-1.173c-0.034-0.067-0.067-0.134-0.067-0.168
	c-0.268-0.436-0.603-0.569-0.938-0.603c-0.167,0-0.268-0.067-0.369-0.201l0,0c0-0.033-0.034-0.033-0.034-0.067
	c0,0,0-0.033-0.033-0.033c0-0.033-0.034-0.033-0.034-0.066c0-0.034,0-0.034-0.033-0.067c0-0.034,0-0.034-0.034-0.067
	c0-0.033,0-0.066-0.034-0.101c0-0.033,0-0.033,0-0.066c0-0.067-0.034-0.134-0.034-0.201c-0.1-0.604-0.335-2.614-0.301-3.15
	c0-0.033,0-0.067,0.034-0.1c0,0,0,0,0-0.034s0.034-0.067,0.067-0.067l0,0c0.033-0.034,0.067-0.067,0.101-0.067l0,0
	c0.034-0.034,0.1-0.067,0.167-0.101c0.369-0.201,0.938-0.335,1.575-0.436c0,0,0,0,0.033,0c0.134-0.034,0.235-0.034,0.369-0.067l0,0
	c0.1-0.033,0.234-0.033,0.335-0.067c0.033,0,0.067,0,0.067,0c0.101-0.033,0.234-0.033,0.335-0.033c0.034,0,0.101,0,0.134-0.034
	c0.034,0,0.067,0,0.101,0c0.034,0,0.067,0,0.067,0c1.91-0.302,8.176-1.508,15.513-0.905c7.807,0.67,10.855,1.608,12.564,2.077
	c1.709,0.469,4.188,0.704,4.188,0.704c4.323,0,6.5-2.011,12.062-2.479c0,0,7.64-0.737,12.899-0.302
	c5.261,0.436,9.08,1.005,9.951,1.34C229.783,190.984,229.516,191.085,229.482,191.688z"/>
<path style="&st0;" d="M218.09,190.817c-1.843-0.268-3.618-0.268-4.456-0.268c-2.01,0-5.227,0.235-7.874,0.67
	c-2.646,0.436-5.863,2.01-6.834,4.054c-0.973,2.077,0.368,6.801,2.613,10.151c2.244,3.351,6.499,4.49,12.329,4.49
	c1.643,0,3.016-0.201,4.188-0.536c2.948-0.871,4.523-2.681,5.36-4.69c1.173-2.814,2.379-7.104,0.871-10.622
	C223.485,192.023,220.67,191.152,218.09,190.817z"/>
</svg>
